<?xml version="1.0" encoding="UTF-8" standalone="no"?>
<!DOCTYPE svg PUBLIC "-//W3C//DTD SVG 1.1//EN" "http://www.w3.org/Graphics/SVG/1.1/DTD/svg11.dtd">
<svg width="100%" height="100%" viewBox="0 0 205 205" version="1.1" xmlns="http://www.w3.org/2000/svg" xmlns:xlink="http://www.w3.org/1999/xlink" xml:space="preserve" xmlns:serif="http://www.serif.com/" style="fill-rule:evenodd;clip-rule:evenodd;stroke-linecap:round;stroke-linejoin:round;stroke-miterlimit:1.5;">
    <g transform="matrix(0.999987,0.00513607,-0.00513607,0.999987,0.639812,-0.0586517)">
        <g>
            <g transform="matrix(0.999805,-0.0197653,0.0197653,0.999805,-1.99783,2.03792)">
                <circle cx="102.097" cy="102.086" r="86.2"/>
            </g>
            <g transform="matrix(0.938989,0,0,0.938989,6.31547,6.52915)">
                <circle cx="101.889" cy="102.335" r="85.929" style="stroke:white;stroke-width:2.13px;"/>
            </g>
            <g transform="matrix(0.640909,0,0,0.640909,37.2798,36.44)">
                <circle cx="101.889" cy="102.335" r="85.929" style="stroke:white;stroke-width:3.12px;"/>
            </g>
            <g transform="matrix(-0.0179418,-0.999839,0.999839,-0.0179418,14.8561,197.129)">
                <g transform="matrix(-0.679351,0.733813,-0.733813,-0.679351,95.6331,22.7273)">
                    <text x="42.851px" y="32.258px" style="font-family:'ArialMT', 'Arial', sans-serif;font-size:18px;fill:white;">E</text>
                </g>
                <g transform="matrix(-0.501551,0.865128,-0.865128,-0.501551,86.6011,40.3981)">
                    <text x="31.663px" y="45.147px" style="font-family:'ArialMT', 'Arial', sans-serif;font-size:18px;fill:white;">S</text>
                </g>
                <g transform="matrix(-0.301813,0.953367,-0.953367,-0.301813,88.169,55.8032)">
                    <text x="23.651px" y="60.186px" style="font-family:'ArialMT', 'Arial', sans-serif;font-size:18px;fill:white;">T</text>
                </g>
                <g transform="matrix(-0.135593,0.990765,-0.990765,-0.135593,97.0637,66.6219)">
                    <text x="19.469px" y="75.653px" style="font-family:'ArialMT', 'Arial', sans-serif;font-size:18px;fill:white;">.</text>
                </g>
                <g transform="matrix(0.15083,0.98856,-0.98856,0.15083,110.356,62.8915)">
                    <text x="18.571px" y="95.681px" style="font-family:'ArialMT', 'Arial', sans-serif;font-size:18px;fill:white;">2</text>
                </g>
                <g transform="matrix(0.3434,0.939189,-0.939189,0.3434,117.789,52.4793)">
                    <text x="21.362px" y="110.481px" style="font-family:'ArialMT', 'Arial', sans-serif;font-size:18px;fill:white;">0</text>
                </g>
                <g transform="matrix(0.520129,0.854088,-0.854088,0.520129,119.257,36.6369)">
                    <text x="27.025px" y="124.447px" style="font-family:'ArialMT', 'Arial', sans-serif;font-size:18px;fill:white;">2</text>
                </g>
                <g transform="matrix(0.673878,0.738842,-0.738842,0.673878,112.724,18.5764)">
                    <text x="35.319px" y="136.978px" style="font-family:'ArialMT', 'Arial', sans-serif;font-size:18px;fill:white;">1</text>
                </g>
            </g>
            <g transform="matrix(0.97782,-0.209449,0.209449,0.97782,8.96529,45.5156)">
                <g transform="matrix(0.578303,-0.815822,0.815822,0.578303,-25.2396,40.0209)">
                    <text x="26.093px" y="44.425px" style="font-family:'ArialMT', 'Arial', sans-serif;font-size:18px;fill:white;">E</text>
                </g>
                <g transform="matrix(0.724726,-0.689037,0.689037,0.724726,-14.1187,32.5541)">
                    <text x="33.684px" y="33.947px" style="font-family:'ArialMT', 'Arial', sans-serif;font-size:18px;fill:white;">L</text>
                </g>
                <g transform="matrix(0.841633,-0.540049,0.540049,0.841633,-7.64504,26.6355)">
                    <text x="41.593px" y="26.353px" style="font-family:'ArialMT', 'Arial', sans-serif;font-size:18px;fill:white;">B</text>
                </g>
                <g transform="matrix(0.940309,-0.340322,0.340322,0.940309,-3.44464,19.0155)">
                    <text x="52.485px" y="19.327px" style="font-family:'ArialMT', 'Arial', sans-serif;font-size:18px;fill:white;">O</text>
                </g>
                <g transform="matrix(0.996693,-0.0812603,0.0812603,0.996693,-0.930441,5.45622)">
                    <text x="66.569px" y="14.159px" style="font-family:'ArialMT', 'Arial', sans-serif;font-size:18px;fill:white;">W</text>
                </g>
                <g transform="matrix(0.962092,0.272726,-0.272726,0.962092,7.16523,-24.1256)">
                    <text x="90.367px" y="13.712px" style="font-family:'ArialMT', 'Arial', sans-serif;font-size:18px;fill:white;">G</text>
                </g>
                <g transform="matrix(0.86703,0.498255,-0.498255,0.86703,22.8506,-49.8037)">
                    <text x="104.736px" y="17.91px" style="font-family:'ArialMT', 'Arial', sans-serif;font-size:18px;fill:white;">R</text>
                </g>
                <g transform="matrix(0.743927,0.668261,-0.668261,0.743927,46.5504,-71.6628)">
                    <text x="116.783px" y="24.909px" style="font-family:'ArialMT', 'Arial', sans-serif;font-size:18px;fill:white;">E</text>
                </g>
                <g transform="matrix(0.592881,0.80529,-0.80529,0.592881,78.5057,-88.0737)">
                    <text x="126.359px" y="33.606px" style="font-family:'ArialMT', 'Arial', sans-serif;font-size:18px;fill:white;">A</text>
                </g>
                <g transform="matrix(0.412824,0.910811,-0.910811,0.412824,118.827,-96.1135)">
                    <text x="133.958px" y="44.104px" style="font-family:'ArialMT', 'Arial', sans-serif;font-size:18px;fill:white;">S</text>
                </g>
                <g transform="matrix(0.207382,0.97826,-0.97826,0.207382,165.081,-91.8629)">
                    <text x="139.23px" y="55.941px" style="font-family:'ArialMT', 'Arial', sans-serif;font-size:18px;fill:white;">E</text>
                </g>
            </g>
            <g transform="matrix(0.0873712,0,0,0.0873712,158.86,109.543)">
                <circle cx="99.465" cy="101.002" r="20.808" style="fill:white;stroke:white;stroke-width:22.89px;"/>
            </g>
            <g transform="matrix(0.0873712,0,0,0.0873712,28.7448,109.543)">
                <circle cx="99.465" cy="101.002" r="20.808" style="fill:white;stroke:white;stroke-width:22.89px;"/>
            </g>
            <g transform="matrix(-1.01044,0.00518973,-0.00518973,-1.01044,204.073,203.682)">
                <circle cx="99.465" cy="101.002" r="20.808" style="fill:white;stroke:white;stroke-width:1.98px;"/>
            </g>
        </g>
    </g>
</svg>
